<?xml version="1.0" encoding="UTF-8" standalone="no"?>
<!-- Created with Inkscape (http://www.inkscape.org/) -->
<svg
   xmlns:dc="http://purl.org/dc/elements/1.1/"
   xmlns:cc="http://creativecommons.org/ns#"
   xmlns:rdf="http://www.w3.org/1999/02/22-rdf-syntax-ns#"
   xmlns:svg="http://www.w3.org/2000/svg"
   xmlns="http://www.w3.org/2000/svg"
   xmlns:sodipodi="http://sodipodi.sourceforge.net/DTD/sodipodi-0.dtd"
   xmlns:inkscape="http://www.inkscape.org/namespaces/inkscape"
   id="svg2837"
   sodipodi:version="0.32"
   inkscape:version="0.46"
   width="459.16"
   height="178.74899"
   xml:space="preserve"
   sodipodi:docname="Euro NCAP logo.svg"
   version="1.0"
   inkscape:output_extension="org.inkscape.output.svg.inkscape"><metadata
     id="metadata2842"><rdf:RDF><cc:Work
         rdf:about=""><dc:format>image/svg+xml</dc:format><dc:type
           rdf:resource="http://purl.org/dc/dcmitype/StillImage" /></cc:Work></rdf:RDF></metadata><defs
     id="defs2840"><inkscape:perspective
       sodipodi:type="inkscape:persp3d"
       inkscape:vp_x="0 : 526.18109 : 1"
       inkscape:vp_y="0 : 1000 : 0"
       inkscape:vp_z="744.09448 : 526.18109 : 1"
       inkscape:persp3d-origin="372.04724 : 350.78739 : 1"
       id="perspective2844" /><clipPath
       clipPathUnits="userSpaceOnUse"
       id="clipPath2852"><path
         d="M 0.029999,439.37 L 311.811,439.37 L 311.811,0 L 0.029999,0 L 0.029999,439.37 z"
         id="path2854" /></clipPath><clipPath
       clipPathUnits="userSpaceOnUse"
       id="clipPath2866"><path
         d="M 301.368,440.516 L 10.046,440.516 L 10.046,10.415 L 301.368,10.415 L 301.368,440.516 z"
         id="path2868" /></clipPath><clipPath
       clipPathUnits="userSpaceOnUse"
       id="clipPath2872"><path
         d="M 11.339,447.874 L 11.339,34.016 C 11.339,34.016 11.339,11.339 34.016,11.339 L 277.795,11.339 C 277.795,11.339 300.472,11.339 300.472,34.016 L 300.472,447.874 L 11.339,447.874"
         id="path2874" /></clipPath><clipPath
       clipPathUnits="userSpaceOnUse"
       id="clipPath2878"><path
         d="M 0.029999,439.37 L 311.811,439.37 L 311.811,0 L 0.029999,0 L 0.029999,439.37 z"
         id="path2880" /></clipPath></defs><sodipodi:namedview
     inkscape:window-height="750"
     inkscape:window-width="1280"
     inkscape:pageshadow="2"
     inkscape:pageopacity="0.0"
     guidetolerance="10.0"
     gridtolerance="10.0"
     objecttolerance="10.0"
     borderopacity="1.0"
     bordercolor="#666666"
     pagecolor="#ffffff"
     id="base"
     showgrid="false"
     inkscape:zoom="1"
     inkscape:cx="194.88188"
     inkscape:cy="274.60626"
     inkscape:window-x="-8"
     inkscape:window-y="-8"
     inkscape:current-layer="g2846" /><g
     id="g2846"
     inkscape:groupmode="layer"
     inkscape:label="EuroNCAP"
     transform="matrix(1.25,0,0,-1.25,97.626337,415.09793)"><g
       id="g3235"
       transform="matrix(0.9664334,0,0,0.9664334,3.5433911,8.7467485)"><g
         style="fill:#231f20;fill-opacity:1"
         transform="matrix(3.1201413,0,0,3.1201413,-54.974582,248.62704)"
         id="g2950"><path
           id="path2952"
           style="fill:#231f20;fill-opacity:1;fill-rule:nonzero;stroke:none"
           d="M 0,0 L 0,-1.313 L -5.887,-1.313 L -5.887,-4.302 L -1.706,-4.302 L -1.706,-5.6 L -5.887,-5.6 L -5.887,-9.208 L 0,-9.208 L 0,-10.522 L -7.412,-10.522 L -7.412,0 L 0,0" /></g><g
         style="fill:#231f20;fill-opacity:1"
         transform="matrix(3.1201413,0,0,3.1201413,-21.723236,248.62704)"
         id="g2954"><path
           id="path2956"
           style="fill:#231f20;fill-opacity:1;fill-rule:nonzero;stroke:none"
           d="M 0,0 L 0,-7.11 C 0,-10.084 -1.585,-10.733 -4.332,-10.733 C -7.065,-10.733 -8.665,-10.084 -8.665,-7.11 L -8.665,0 L -7.11,0 L -7.11,-6.959 C -7.11,-8.876 -6.28,-9.344 -4.332,-9.344 C -2.43,-9.344 -1.54,-8.906 -1.54,-6.959 L -1.54,0 L 0,0" /></g><g
         style="fill:#231f20;fill-opacity:1"
         transform="matrix(3.1201413,0,0,3.1201413,-10.465765,233.22601)"
         id="g2958"><path
           id="path2960"
           style="fill:#231f20;fill-opacity:1;fill-rule:nonzero;stroke:none"
           d="M 0,0 L 3.261,0 C 4.257,0 4.8,0.649 4.8,1.766 C 4.8,2.989 4.272,3.638 3.321,3.638 L 0,3.638 L 0,0 z M 7.216,-5.585 L 5.299,-5.585 C 3.638,-2.672 2.461,-1.298 1.721,-1.298 L 0,-1.298 L 0,-5.585 L -1.525,-5.585 L -1.525,4.936 L 3.562,4.936 C 5.842,4.936 6.506,3.532 6.506,1.872 C 6.506,0.392 5.812,-0.921 3.608,-0.951 C 4.348,-1.208 5.495,-2.717 7.216,-5.585" /></g><g
         style="fill:#231f20;fill-opacity:1"
         transform="matrix(3.1201413,0,0,3.1201413,40.071163,232.33054)"
         id="g2962"><path
           id="path2964"
           style="fill:#231f20;fill-opacity:1;fill-rule:nonzero;stroke:none"
           d="M 0,0 C 0,3.532 -0.755,4.121 -3.261,4.121 C -5.751,4.121 -6.491,3.532 -6.491,0 C -6.491,-3.412 -5.751,-4.136 -3.261,-4.136 C -0.755,-4.136 0,-3.412 0,0 z M 1.63,0.03 C 1.63,-4.303 0.061,-5.51 -3.261,-5.51 C -6.567,-5.51 -8.152,-4.303 -8.152,0.03 C -8.152,4.317 -6.567,5.48 -3.261,5.48 C 0.045,5.48 1.63,4.317 1.63,0.03" /></g><g
         style="fill:#231f20;fill-opacity:1"
         transform="matrix(3.1201413,0,0,3.1201413,196.24984,215.79691)"
         id="g2966"><path
           id="path2968"
           style="fill:#231f20;fill-opacity:1;fill-rule:nonzero;stroke:none"
           d="M 0,0 L -1.871,0 C -3.411,2.853 -5.147,5.797 -6.974,8.68 L -6.974,0 L -8.483,0 L -8.483,10.522 L -6.445,10.522 C -4.74,7.925 -3.064,5.057 -1.54,2.28 L -1.54,10.522 L 0,10.522 L 0,0" /></g><g
         style="fill:#231f20;fill-opacity:1"
         transform="matrix(3.1201413,0,0,3.1201413,216.78661,249.42579)"
         id="g2970"><path
           id="path2972"
           style="fill:#231f20;fill-opacity:1;fill-rule:nonzero;stroke:none"
           d="M 0,0 C 0.951,0 2.174,-0.166 2.974,-0.393 L 2.597,-1.766 C 1.993,-1.54 0.951,-1.404 0.181,-1.404 C -2.294,-1.404 -3.215,-1.887 -3.215,-5.434 C -3.215,-8.967 -2.294,-9.571 0.181,-9.571 C 0.951,-9.571 1.993,-9.435 2.597,-9.223 L 2.974,-10.597 C 2.159,-10.838 0.951,-10.99 0,-10.99 C -3.306,-10.99 -4.876,-9.707 -4.876,-5.419 C -4.876,-1.117 -3.306,0 0,0" /></g><g
         style="fill:#231f20;fill-opacity:1"
         transform="matrix(3.1201413,0,0,3.1201413,243.11749,244.6707)"
         id="g2974"><path
           id="path2976"
           style="fill:#231f20;fill-opacity:1;fill-rule:nonzero;stroke:none"
           d="M 0,0 C -0.649,-1.615 -1.283,-3.306 -1.887,-5.012 L 2.098,-5.012 C 1.494,-3.352 0.921,-1.6 0.422,0 L 0,0 z M 2.551,-6.325 L -2.325,-6.325 C -2.657,-7.322 -2.974,-8.303 -3.276,-9.254 L -4.861,-9.254 C -3.759,-5.933 -2.34,-2.068 -0.967,1.268 L 1.525,1.268 C 2.656,-2.204 4.182,-6.401 5.404,-9.254 L 3.683,-9.254 C 3.336,-8.378 2.928,-7.382 2.551,-6.325" /></g><g
         style="fill:#231f20;fill-opacity:1"
         transform="matrix(3.1201413,0,0,3.1201413,279.09895,231.34145)"
         id="g2978"><path
           id="path2980"
           style="fill:#231f20;fill-opacity:1;fill-rule:nonzero;stroke:none"
           d="M 0,0 C 1.042,0 1.555,0.77 1.555,2.038 C 1.555,3.457 1.042,4.242 0.061,4.242 L -3.261,4.242 L -3.261,0 L 0,0 z M -4.801,-4.982 L -4.801,5.54 L 0.287,5.54 C 2.566,5.54 3.246,3.955 3.246,2.023 C 3.246,0.302 2.446,-1.313 0.347,-1.313 L -3.261,-1.313 L -3.261,-4.982 L -4.801,-4.982" /></g></g><g
       id="g3221"
       transform="matrix(0.9664334,0,0,0.9664334,3.5433911,8.7467485)"><g
         transform="matrix(3.1201413,0,0,3.1201413,160.49926,244.76743)"
         id="g2982"><path
           id="path2984"
           style="fill:#ffdd00;fill-opacity:1;fill-rule:nonzero;stroke:none"
           d="M 0,0 C 0,-9.51 -7.711,-17.219 -17.219,-17.219 C -26.729,-17.219 -34.437,-9.51 -34.437,0 C -34.437,9.509 -26.729,17.218 -17.219,17.218 C -7.711,17.218 0,9.509 0,0" /></g><g
         transform="matrix(3.1201413,0,0,3.1201413,160.49926,244.76743)"
         id="g2986"><path
           id="path2988"
           style="fill:none;stroke:#231f20;stroke-width:1.25800002;stroke-linecap:butt;stroke-linejoin:miter;stroke-miterlimit:4;stroke-dasharray:none;stroke-opacity:1"
           d="M 0,0 C 0,-9.51 -7.711,-17.219 -17.219,-17.219 C -26.729,-17.219 -34.437,-9.51 -34.437,0 C -34.437,9.509 -26.729,17.218 -17.219,17.218 C -7.711,17.218 0,9.509 0,0 z" /></g><g
         transform="matrix(3.1201413,0,0,3.1201413,106.77355,277.82532)"
         id="g2990"><path
           id="path2992"
           style="fill:#231f20;fill-opacity:1;fill-rule:nonzero;stroke:none"
           d="M 0,0 C -10.409,0 -10.781,-10.594 -10.781,-10.594 L 0,-10.594 L 0,0" /></g><g
         transform="matrix(3.1201413,0,0,3.1201413,106.77355,211.72512)"
         id="g2994"><path
           id="path2996"
           style="fill:#231f20;fill-opacity:1;fill-rule:nonzero;stroke:none"
           d="M 0,0 C 10.408,0 10.78,10.594 10.78,10.594 L 0,10.594 L 0,0" /></g><g
         transform="matrix(3.1201413,0,0,3.1201413,106.77355,298.49001)"
         id="g2998"><path
           id="path3000"
           style="fill:none;stroke:#231f20;stroke-width:1.25800002;stroke-linecap:butt;stroke-linejoin:miter;stroke-miterlimit:4;stroke-dasharray:none;stroke-opacity:1"
           d="M 0,0 L 0,-34.432" /><g
           transform="translate(-17.218,-17.218)"
           id="g3002"><path
             id="path3004"
             style="fill:none;stroke:#231f20;stroke-width:1.25800002;stroke-linecap:butt;stroke-linejoin:miter;stroke-miterlimit:4;stroke-dasharray:none;stroke-opacity:1"
             d="M 0,0 L 34.435,0" /></g></g></g><g
       id="g3253"
       transform="matrix(0.9664334,0,0,0.9664334,3.5433911,8.7467485)"><g
         style="fill:#231f20;fill-opacity:1"
         transform="matrix(3.1201413,0,0,3.1201413,27.110097,280.42439)"
         id="g3006"><path
           id="path3008"
           style="fill:#231f20;fill-opacity:1;fill-rule:nonzero;stroke:none"
           d="M 0,0 L 0.946,-0.34 L 0.108,-2.668 L 1.195,-3.059 L 1.815,-1.335 L 2.741,-1.668 L 2.12,-3.392 L 3.837,-4.01 L 3.449,-5.09 L -1.226,-3.408 L 0,0" /></g><g
         style="fill:#231f20;fill-opacity:1"
         transform="matrix(3.1201413,0,0,3.1201413,41.553231,290.23724)"
         id="g3010"><path
           id="path3012"
           style="fill:#231f20;fill-opacity:1;fill-rule:nonzero;stroke:none"
           d="M 0,0 C -1.147,0.72 -1.378,0.647 -1.913,-0.204 C -2.447,-1.056 -2.413,-1.296 -1.266,-2.016 C -0.101,-2.748 0.166,-2.697 0.701,-1.846 C 1.236,-0.995 1.165,-0.732 0,0 z M 0.64,1.046 C 2.373,-0.042 2.434,-1.057 1.588,-2.403 C 0.739,-3.756 -0.198,-4.135 -1.931,-3.047 C -3.639,-1.974 -3.656,-0.995 -2.806,0.357 C -1.961,1.703 -1.068,2.119 0.64,1.046" /></g><g
         style="fill:#231f20;fill-opacity:1"
         transform="matrix(3.1201413,0,0,3.1201413,48.068085,299.22324)"
         id="g3014"><path
           id="path3016"
           style="fill:#231f20;fill-opacity:1;fill-rule:nonzero;stroke:none"
           d="M 0,0 L 0.897,0.907 C 1.073,1.085 1.076,1.342 0.762,1.653 C 0.443,1.968 0.181,1.997 0,1.815 L -0.907,0.897 L 0,0 z M 4.307,0.492 L 3.299,-0.526 C 1.795,-0.121 1.246,-0.079 1.03,-0.297 L 0.669,-0.662 L 1.931,-1.91 L 1.124,-2.726 L -2.409,0.768 L -0.459,2.74 C 0.258,3.464 0.95,3.261 1.533,2.685 C 2.04,2.184 2.27,1.535 1.644,0.831 C 1.966,0.984 2.545,0.931 4.307,0.492" /></g><g
         style="fill:#231f20;fill-opacity:1"
         transform="matrix(3.1201413,0,0,3.1201413,70.620468,320.34973)"
         id="g3018"><path
           id="path3020"
           style="fill:#231f20;fill-opacity:1;fill-rule:nonzero;stroke:none"
           d="M 0,0 C -0.303,-0.07 -0.79,-0.251 -1.27,-0.517 C -1.919,-0.876 -2.037,-1.104 -1.871,-1.404 C -1.719,-1.678 -1.539,-1.709 -0.74,-1.372 C 0.314,-0.935 0.968,-1.07 1.427,-1.899 C 2.021,-2.971 1.637,-3.632 0.284,-4.382 C -0.24,-4.672 -0.82,-4.888 -1.239,-4.957 L -1.51,-3.982 C -1.188,-3.902 -0.713,-3.728 -0.24,-3.466 C 0.409,-3.107 0.563,-2.899 0.38,-2.569 C 0.228,-2.294 0.037,-2.229 -0.828,-2.594 C -1.813,-3.009 -2.418,-2.946 -2.864,-2.141 C -3.462,-1.062 -3.066,-0.305 -1.776,0.41 C -1.251,0.7 -0.683,0.909 -0.271,0.975 L 0,0" /></g><g
         style="fill:#231f20;fill-opacity:1"
         transform="matrix(3.1201413,0,0,3.1201413,81.647047,324.87081)"
         id="g3022"><path
           id="path3024"
           style="fill:#231f20;fill-opacity:1;fill-rule:nonzero;stroke:none"
           d="M 0,0 C -0.029,-0.554 -0.049,-1.262 -0.061,-1.99 L 1.301,-1.567 C 0.881,-0.988 0.477,-0.404 0.177,0.055 L 0,0 z M 1.907,-2.416 L -0.046,-3.023 C -0.046,-3.456 -0.037,-3.848 -0.027,-4.166 L -1.198,-4.53 C -1.216,-3.08 -1.12,-0.766 -0.99,0.738 L 0.705,1.264 C 1.615,-0.081 2.951,-1.883 3.846,-2.963 L 2.635,-3.34 C 2.432,-3.096 2.175,-2.773 1.907,-2.416" /></g><g
         style="fill:#231f20;fill-opacity:1"
         transform="matrix(3.1201413,0,0,3.1201413,104.80162,332.07834)"
         id="g3026"><path
           id="path3028"
           style="fill:#231f20;fill-opacity:1;fill-rule:nonzero;stroke:none"
           d="M 0,0 L 0.098,-1 L -2.363,-1.243 L -2.25,-2.392 L -0.427,-2.213 L -0.33,-3.191 L -2.154,-3.371 L -1.975,-5.187 L -3.117,-5.3 L -3.604,-0.355 L 0,0" /></g><g
         style="fill:#231f20;fill-opacity:1"
         transform="matrix(3.1201413,0,0,3.1201413,120.08719,331.06117)"
         id="g3030"><path
           id="path3032"
           style="fill:#231f20;fill-opacity:1;fill-rule:nonzero;stroke:none"
           d="M 0,0 L -0.08,-1.002 L -2.631,-0.797 L -2.702,-1.686 L -0.876,-1.832 L -0.955,-2.813 L -2.78,-2.666 L -2.867,-3.747 L -0.316,-3.951 L -0.397,-4.952 L -4.091,-4.657 L -3.695,0.296 L 0,0" /></g><g
         style="fill:#231f20;fill-opacity:1"
         transform="matrix(3.1201413,0,0,3.1201413,127.37584,322.15941)"
         id="g3034"><path
           id="path3036"
           style="fill:#231f20;fill-opacity:1;fill-rule:nonzero;stroke:none"
           d="M 0,0 L 1.222,-0.369 C 1.461,-0.441 1.69,-0.324 1.817,0.099 C 1.947,0.529 1.85,0.774 1.605,0.849 L 0.369,1.221 L 0,0 z M 2.45,-3.577 L 1.078,-3.162 C 0.733,-1.643 0.513,-1.138 0.22,-1.049 L -0.272,-0.901 L -0.784,-2.6 L -1.884,-2.269 L -0.447,2.488 L 2.207,1.687 C 3.183,1.392 3.327,0.686 3.09,-0.099 C 2.884,-0.781 2.418,-1.289 1.504,-1.065 C 1.789,-1.277 2.014,-1.814 2.45,-3.577" /></g><g
         style="fill:#231f20;fill-opacity:1"
         transform="matrix(3.1201413,0,0,3.1201413,155.57256,317.37311)"
         id="g3038"><path
           id="path3040"
           style="fill:#231f20;fill-opacity:1;fill-rule:nonzero;stroke:none"
           d="M 0,0 C 0.391,-0.25 0.856,-0.633 1.117,-0.927 L 0.385,-1.66 C 0.227,-1.458 -0.1,-1.189 -0.365,-1.019 C -1.205,-0.482 -1.594,-0.402 -2.336,-1.56 C -3.074,-2.713 -2.861,-3.069 -2.021,-3.607 C -1.757,-3.776 -1.372,-3.955 -1.126,-4.019 L -1.496,-5.009 C -1.874,-4.886 -2.407,-4.621 -2.798,-4.371 C -4.142,-3.51 -4.452,-2.592 -3.361,-0.887 C -2.266,0.824 -1.344,0.861 0,0" /></g><g
         style="fill:#231f20;fill-opacity:1"
         transform="matrix(3.1201413,0,0,3.1201413,165.09211,305.18896)"
         id="g3042"><path
           id="path3044"
           style="fill:#231f20;fill-opacity:1;fill-rule:nonzero;stroke:none"
           d="M 0,0 C -0.5,-0.239 -1.132,-0.56 -1.777,-0.896 L -0.755,-1.89 C -0.446,-1.246 -0.127,-0.612 0.133,-0.129 L 0,0 z M -1.211,-2.83 L -2.677,-1.403 C -3.058,-1.61 -3.398,-1.806 -3.673,-1.967 L -4.552,-1.111 C -3.286,-0.403 -1.209,0.618 0.175,1.222 L 1.447,-0.015 C 0.701,-1.457 -0.244,-3.492 -0.766,-4.794 L -1.675,-3.91 C -1.558,-3.616 -1.397,-3.236 -1.211,-2.83" /></g><g
         style="fill:#231f20;fill-opacity:1"
         transform="matrix(3.1201413,0,0,3.1201413,172.23723,290.92679)"
         id="g3046"><path
           id="path3048"
           style="fill:#231f20;fill-opacity:1;fill-rule:nonzero;stroke:none"
           d="M 0,0 L 0.7,-1.067 C 0.837,-1.276 1.087,-1.333 1.457,-1.091 C 1.832,-0.845 1.915,-0.594 1.774,-0.379 L 1.067,0.7 L 0,0 z M -0.419,-4.315 L -1.204,-3.116 C -0.494,-1.73 -0.338,-1.201 -0.505,-0.945 L -0.787,-0.516 L -2.272,-1.489 L -2.901,-0.529 L 1.255,2.195 L 2.775,-0.124 C 3.334,-0.977 2.99,-1.611 2.305,-2.06 C 1.709,-2.451 1.026,-2.541 0.468,-1.781 C 0.551,-2.128 0.379,-2.684 -0.419,-4.315" /></g><g
         style="fill:#231f20;fill-opacity:1"
         transform="matrix(3.1201413,0,0,3.1201413,186.60861,270.23714)"
         id="g3050"><path
           id="path3052"
           style="fill:#231f20;fill-opacity:1;fill-rule:nonzero;stroke:none"
           d="M 0,0 C -0.029,0.31 -0.14,0.817 -0.339,1.329 C -0.607,2.02 -0.817,2.168 -1.135,2.045 C -1.428,1.931 -1.483,1.757 -1.258,0.92 C -0.968,-0.184 -1.191,-0.813 -2.076,-1.155 C -3.219,-1.598 -3.821,-1.128 -4.38,0.314 C -4.596,0.873 -4.731,1.478 -4.742,1.902 L -3.74,2.038 C -3.704,1.708 -3.597,1.214 -3.401,0.709 C -3.133,0.018 -2.949,-0.163 -2.597,-0.027 C -2.304,0.086 -2.213,0.267 -2.458,1.174 C -2.734,2.205 -2.589,2.797 -1.731,3.129 C -0.581,3.574 0.115,3.079 0.648,1.703 C 0.864,1.145 0.993,0.553 1.002,0.136 L 0,0" /></g></g></g></svg>